<svg xmlns="http://www.w3.org/2000/svg" width="20" height="16.254" viewBox="0 0 20 16.254"><path d="M22.571,6.741a8.2,8.2,0,0,1-2.357.646,4.116,4.116,0,0,0,1.8-2.27,8.214,8.214,0,0,1-2.606,1A4.107,4.107,0,0,0,12.42,9.855,11.649,11.649,0,0,1,3.963,5.568a4.108,4.108,0,0,0,1.27,5.478,4.086,4.086,0,0,1-1.858-.513c0,.017,0,.034,0,.052a4.106,4.106,0,0,0,3.291,4.023,4.11,4.11,0,0,1-1.853.07,4.107,4.107,0,0,0,3.833,2.85,8.232,8.232,0,0,1-5.1,1.757,8.322,8.322,0,0,1-.979-.057,11.614,11.614,0,0,0,6.29,1.844A11.6,11.6,0,0,0,20.535,9.4q0-.267-.012-.531a8.336,8.336,0,0,0,2.048-2.124Z" transform="translate(-2.571 -4.817)" fill="#fff"/></svg>