<svg xmlns="http://www.w3.org/2000/svg" width="20" height="20" viewBox="0 0 20 20"><path d="M19.25,1.928H5.891a3.33,3.33,0,0,0-3.32,3.32V18.608a3.33,3.33,0,0,0,3.32,3.32H19.25a3.33,3.33,0,0,0,3.32-3.32V5.248A3.33,3.33,0,0,0,19.25,1.928ZM8.973,10.678h7.2a3.809,3.809,0,1,1-7.2,0Zm11.1,0v7.5a1.254,1.254,0,0,1-1.25,1.25H6.321a1.254,1.254,0,0,1-1.25-1.25v-7.5H7.026a5.684,5.684,0,1,0,11.09,0h1.955Zm0-4.376a.627.627,0,0,1-.625.625H18.2a.627.627,0,0,1-.625-.625V5.053a.627.627,0,0,1,.625-.625h1.25a.627.627,0,0,1,.625.625Z" transform="translate(-2.571 -1.928)" fill="#fff"/></svg>